<svg xmlns="http://www.w3.org/2000/svg" viewBox="0 0 1200 800" width="1200" height="800" role="img" aria-label="COURTYARD STUDIO — placeholder drawing">
<rect width="1200" height="800" fill="#0e0e13"/>
<line x1="40" y1="0" x2="40" y2="800" stroke="rgba(255,255,255,0.045)" stroke-width="1"/>
<line x1="80" y1="0" x2="80" y2="800" stroke="rgba(255,255,255,0.045)" stroke-width="1"/>
<line x1="120" y1="0" x2="120" y2="800" stroke="rgba(255,255,255,0.045)" stroke-width="1"/>
<line x1="160" y1="0" x2="160" y2="800" stroke="rgba(255,255,255,0.045)" stroke-width="1"/>
<line x1="200" y1="0" x2="200" y2="800" stroke="rgba(255,255,255,0.045)" stroke-width="1"/>
<line x1="240" y1="0" x2="240" y2="800" stroke="rgba(255,255,255,0.045)" stroke-width="1"/>
<line x1="280" y1="0" x2="280" y2="800" stroke="rgba(255,255,255,0.045)" stroke-width="1"/>
<line x1="320" y1="0" x2="320" y2="800" stroke="rgba(255,255,255,0.045)" stroke-width="1"/>
<line x1="360" y1="0" x2="360" y2="800" stroke="rgba(255,255,255,0.045)" stroke-width="1"/>
<line x1="400" y1="0" x2="400" y2="800" stroke="rgba(255,255,255,0.045)" stroke-width="1"/>
<line x1="440" y1="0" x2="440" y2="800" stroke="rgba(255,255,255,0.045)" stroke-width="1"/>
<line x1="480" y1="0" x2="480" y2="800" stroke="rgba(255,255,255,0.045)" stroke-width="1"/>
<line x1="520" y1="0" x2="520" y2="800" stroke="rgba(255,255,255,0.045)" stroke-width="1"/>
<line x1="560" y1="0" x2="560" y2="800" stroke="rgba(255,255,255,0.045)" stroke-width="1"/>
<line x1="600" y1="0" x2="600" y2="800" stroke="rgba(255,255,255,0.045)" stroke-width="1"/>
<line x1="640" y1="0" x2="640" y2="800" stroke="rgba(255,255,255,0.045)" stroke-width="1"/>
<line x1="680" y1="0" x2="680" y2="800" stroke="rgba(255,255,255,0.045)" stroke-width="1"/>
<line x1="720" y1="0" x2="720" y2="800" stroke="rgba(255,255,255,0.045)" stroke-width="1"/>
<line x1="760" y1="0" x2="760" y2="800" stroke="rgba(255,255,255,0.045)" stroke-width="1"/>
<line x1="800" y1="0" x2="800" y2="800" stroke="rgba(255,255,255,0.045)" stroke-width="1"/>
<line x1="840" y1="0" x2="840" y2="800" stroke="rgba(255,255,255,0.045)" stroke-width="1"/>
<line x1="880" y1="0" x2="880" y2="800" stroke="rgba(255,255,255,0.045)" stroke-width="1"/>
<line x1="920" y1="0" x2="920" y2="800" stroke="rgba(255,255,255,0.045)" stroke-width="1"/>
<line x1="960" y1="0" x2="960" y2="800" stroke="rgba(255,255,255,0.045)" stroke-width="1"/>
<line x1="1000" y1="0" x2="1000" y2="800" stroke="rgba(255,255,255,0.045)" stroke-width="1"/>
<line x1="1040" y1="0" x2="1040" y2="800" stroke="rgba(255,255,255,0.045)" stroke-width="1"/>
<line x1="1080" y1="0" x2="1080" y2="800" stroke="rgba(255,255,255,0.045)" stroke-width="1"/>
<line x1="1120" y1="0" x2="1120" y2="800" stroke="rgba(255,255,255,0.045)" stroke-width="1"/>
<line x1="1160" y1="0" x2="1160" y2="800" stroke="rgba(255,255,255,0.045)" stroke-width="1"/>
<line x1="0" y1="40" x2="1200" y2="40" stroke="rgba(255,255,255,0.045)" stroke-width="1"/>
<line x1="0" y1="80" x2="1200" y2="80" stroke="rgba(255,255,255,0.045)" stroke-width="1"/>
<line x1="0" y1="120" x2="1200" y2="120" stroke="rgba(255,255,255,0.045)" stroke-width="1"/>
<line x1="0" y1="160" x2="1200" y2="160" stroke="rgba(255,255,255,0.045)" stroke-width="1"/>
<line x1="0" y1="200" x2="1200" y2="200" stroke="rgba(255,255,255,0.045)" stroke-width="1"/>
<line x1="0" y1="240" x2="1200" y2="240" stroke="rgba(255,255,255,0.045)" stroke-width="1"/>
<line x1="0" y1="280" x2="1200" y2="280" stroke="rgba(255,255,255,0.045)" stroke-width="1"/>
<line x1="0" y1="320" x2="1200" y2="320" stroke="rgba(255,255,255,0.045)" stroke-width="1"/>
<line x1="0" y1="360" x2="1200" y2="360" stroke="rgba(255,255,255,0.045)" stroke-width="1"/>
<line x1="0" y1="400" x2="1200" y2="400" stroke="rgba(255,255,255,0.045)" stroke-width="1"/>
<line x1="0" y1="440" x2="1200" y2="440" stroke="rgba(255,255,255,0.045)" stroke-width="1"/>
<line x1="0" y1="480" x2="1200" y2="480" stroke="rgba(255,255,255,0.045)" stroke-width="1"/>
<line x1="0" y1="520" x2="1200" y2="520" stroke="rgba(255,255,255,0.045)" stroke-width="1"/>
<line x1="0" y1="560" x2="1200" y2="560" stroke="rgba(255,255,255,0.045)" stroke-width="1"/>
<line x1="0" y1="600" x2="1200" y2="600" stroke="rgba(255,255,255,0.045)" stroke-width="1"/>
<line x1="0" y1="640" x2="1200" y2="640" stroke="rgba(255,255,255,0.045)" stroke-width="1"/>
<line x1="0" y1="680" x2="1200" y2="680" stroke="rgba(255,255,255,0.045)" stroke-width="1"/>
<line x1="0" y1="720" x2="1200" y2="720" stroke="rgba(255,255,255,0.045)" stroke-width="1"/>
<line x1="0" y1="760" x2="1200" y2="760" stroke="rgba(255,255,255,0.045)" stroke-width="1"/>
<rect x="104" y="104" width="992" height="544" fill="none" stroke="#e8e6e1" stroke-width="3"/>
<line x1="437.98791728230816" y1="104" x2="437.98791728230816" y2="167.06" stroke="#e8e6e1" stroke-width="1.6"/>
<line x1="437.98791728230816" y1="241.06" x2="437.98791728230816" y2="648" stroke="#e8e6e1" stroke-width="1.6"/>
<path d="M 437.98791728230816 167.06 L 511.99 167.06" stroke="#e8e6e1" stroke-width="1.4"/>
<path d="M 511.99 167.06 A 74 74 0 0 1 437.98791728230816 241.06" fill="none" stroke="#c9a86a" stroke-width="1.1" opacity="0.75"/>
<line x1="769.6767220197556" y1="104" x2="769.6767220197556" y2="504.5" stroke="#e8e6e1" stroke-width="1.6"/>
<line x1="769.6767220197556" y1="578.5" x2="769.6767220197556" y2="648" stroke="#e8e6e1" stroke-width="1.6"/>
<path d="M 769.6767220197556 504.5 L 843.68 504.5" stroke="#e8e6e1" stroke-width="1.4"/>
<path d="M 843.68 504.5 A 74 74 0 0 1 769.6767220197556 578.5" fill="none" stroke="#c9a86a" stroke-width="1.1" opacity="0.75"/>
<line x1="104" y1="287.78813704925903" x2="521.83" y2="287.78813704925903" stroke="#e8e6e1" stroke-width="1.6"/>
<line x1="595.83" y1="287.78813704925903" x2="1096" y2="287.78813704925903" stroke="#e8e6e1" stroke-width="1.6"/>
<path d="M 521.83 287.78813704925903 L 521.83 213.79" stroke="#e8e6e1" stroke-width="1.4"/>
<path d="M 521.83 213.79 A 74 74 0 0 1 595.83 287.78813704925903" fill="none" stroke="#c9a86a" stroke-width="1.1" opacity="0.75"/>
<line x1="104" y1="464.2226398481677" x2="874.98" y2="464.2226398481677" stroke="#e8e6e1" stroke-width="1.6"/>
<line x1="948.98" y1="464.2226398481677" x2="1096" y2="464.2226398481677" stroke="#e8e6e1" stroke-width="1.6"/>
<path d="M 874.98 464.2226398481677 L 874.98 390.22" stroke="#e8e6e1" stroke-width="1.4"/>
<path d="M 874.98 390.22 A 74 74 0 0 1 948.98 464.2226398481677" fill="none" stroke="#c9a86a" stroke-width="1.1" opacity="0.75"/>
<rect x="725.31" y="453.74" width="106.52" height="42.71" fill="none" stroke="#e8e6e1" stroke-width="1.2" opacity="0.55" rx="3"/>
<circle cx="757.45" cy="348.98" r="18.27" fill="none" stroke="#e8e6e1" stroke-width="1.2" opacity="0.55"/>
<rect x="372.65" y="462.53" width="114.93" height="42.54" fill="none" stroke="#e8e6e1" stroke-width="1.2" opacity="0.55" rx="3"/>
<circle cx="381.58" cy="220.25" r="33.88" fill="none" stroke="#e8e6e1" stroke-width="1.2" opacity="0.55"/>
<circle cx="557.05" cy="422.86" r="38.62" fill="none" stroke="#e8e6e1" stroke-width="1.2" opacity="0.55"/>
<circle cx="188.06" cy="470.59" r="39.38" fill="none" stroke="#e8e6e1" stroke-width="1.2" opacity="0.55"/>
<circle cx="213.2" cy="347.29" r="26.25" fill="none" stroke="#e8e6e1" stroke-width="1.2" opacity="0.55"/>
<line x1="104" y1="676" x2="1096" y2="676" stroke="#c9a86a" stroke-width="1" opacity="0.6"/>
<line x1="104" y1="669" x2="104" y2="683" stroke="#c9a86a" stroke-width="1" opacity="0.6"/>
<line x1="1096" y1="669" x2="1096" y2="683" stroke="#c9a86a" stroke-width="1" opacity="0.6"/>
<text x="600" y="666" fill="#c9a86a" font-family="ui-monospace, SFMono-Regular, Menlo, Consolas, monospace" font-size="18" text-anchor="middle" opacity="0.8">19 400</text>
<text x="104" y="68" fill="#e8e6e1" font-family="ui-monospace, SFMono-Regular, Menlo, Consolas, monospace" font-size="18" letter-spacing="3" opacity="0.6">002 · SHEET 01</text>
<text x="104" y="94" fill="#e8e6e1" font-family="ui-monospace, SFMono-Regular, Menlo, Consolas, monospace" font-size="26" letter-spacing="1">COURTYARD STUDIO</text>
<text x="1096" y="94" fill="#c9a86a" font-family="ui-monospace, SFMono-Regular, Menlo, Consolas, monospace" font-size="18" letter-spacing="2" text-anchor="end" opacity="0.85">PLACEHOLDER</text>
<text x="1096" y="666" fill="#e8e6e1" font-family="ui-monospace, SFMono-Regular, Menlo, Consolas, monospace" font-size="18" text-anchor="end" opacity="0.45">Courtyard</text>
</svg>
