<svg xmlns="http://www.w3.org/2000/svg" viewBox="0 0 1600 900" width="1600" height="900" role="img" aria-label="COURTYARD STUDIO — placeholder drawing">
<rect width="1600" height="900" fill="#0e0e13"/>
<line x1="40" y1="0" x2="40" y2="900" stroke="rgba(255,255,255,0.045)" stroke-width="1"/>
<line x1="80" y1="0" x2="80" y2="900" stroke="rgba(255,255,255,0.045)" stroke-width="1"/>
<line x1="120" y1="0" x2="120" y2="900" stroke="rgba(255,255,255,0.045)" stroke-width="1"/>
<line x1="160" y1="0" x2="160" y2="900" stroke="rgba(255,255,255,0.045)" stroke-width="1"/>
<line x1="200" y1="0" x2="200" y2="900" stroke="rgba(255,255,255,0.045)" stroke-width="1"/>
<line x1="240" y1="0" x2="240" y2="900" stroke="rgba(255,255,255,0.045)" stroke-width="1"/>
<line x1="280" y1="0" x2="280" y2="900" stroke="rgba(255,255,255,0.045)" stroke-width="1"/>
<line x1="320" y1="0" x2="320" y2="900" stroke="rgba(255,255,255,0.045)" stroke-width="1"/>
<line x1="360" y1="0" x2="360" y2="900" stroke="rgba(255,255,255,0.045)" stroke-width="1"/>
<line x1="400" y1="0" x2="400" y2="900" stroke="rgba(255,255,255,0.045)" stroke-width="1"/>
<line x1="440" y1="0" x2="440" y2="900" stroke="rgba(255,255,255,0.045)" stroke-width="1"/>
<line x1="480" y1="0" x2="480" y2="900" stroke="rgba(255,255,255,0.045)" stroke-width="1"/>
<line x1="520" y1="0" x2="520" y2="900" stroke="rgba(255,255,255,0.045)" stroke-width="1"/>
<line x1="560" y1="0" x2="560" y2="900" stroke="rgba(255,255,255,0.045)" stroke-width="1"/>
<line x1="600" y1="0" x2="600" y2="900" stroke="rgba(255,255,255,0.045)" stroke-width="1"/>
<line x1="640" y1="0" x2="640" y2="900" stroke="rgba(255,255,255,0.045)" stroke-width="1"/>
<line x1="680" y1="0" x2="680" y2="900" stroke="rgba(255,255,255,0.045)" stroke-width="1"/>
<line x1="720" y1="0" x2="720" y2="900" stroke="rgba(255,255,255,0.045)" stroke-width="1"/>
<line x1="760" y1="0" x2="760" y2="900" stroke="rgba(255,255,255,0.045)" stroke-width="1"/>
<line x1="800" y1="0" x2="800" y2="900" stroke="rgba(255,255,255,0.045)" stroke-width="1"/>
<line x1="840" y1="0" x2="840" y2="900" stroke="rgba(255,255,255,0.045)" stroke-width="1"/>
<line x1="880" y1="0" x2="880" y2="900" stroke="rgba(255,255,255,0.045)" stroke-width="1"/>
<line x1="920" y1="0" x2="920" y2="900" stroke="rgba(255,255,255,0.045)" stroke-width="1"/>
<line x1="960" y1="0" x2="960" y2="900" stroke="rgba(255,255,255,0.045)" stroke-width="1"/>
<line x1="1000" y1="0" x2="1000" y2="900" stroke="rgba(255,255,255,0.045)" stroke-width="1"/>
<line x1="1040" y1="0" x2="1040" y2="900" stroke="rgba(255,255,255,0.045)" stroke-width="1"/>
<line x1="1080" y1="0" x2="1080" y2="900" stroke="rgba(255,255,255,0.045)" stroke-width="1"/>
<line x1="1120" y1="0" x2="1120" y2="900" stroke="rgba(255,255,255,0.045)" stroke-width="1"/>
<line x1="1160" y1="0" x2="1160" y2="900" stroke="rgba(255,255,255,0.045)" stroke-width="1"/>
<line x1="1200" y1="0" x2="1200" y2="900" stroke="rgba(255,255,255,0.045)" stroke-width="1"/>
<line x1="1240" y1="0" x2="1240" y2="900" stroke="rgba(255,255,255,0.045)" stroke-width="1"/>
<line x1="1280" y1="0" x2="1280" y2="900" stroke="rgba(255,255,255,0.045)" stroke-width="1"/>
<line x1="1320" y1="0" x2="1320" y2="900" stroke="rgba(255,255,255,0.045)" stroke-width="1"/>
<line x1="1360" y1="0" x2="1360" y2="900" stroke="rgba(255,255,255,0.045)" stroke-width="1"/>
<line x1="1400" y1="0" x2="1400" y2="900" stroke="rgba(255,255,255,0.045)" stroke-width="1"/>
<line x1="1440" y1="0" x2="1440" y2="900" stroke="rgba(255,255,255,0.045)" stroke-width="1"/>
<line x1="1480" y1="0" x2="1480" y2="900" stroke="rgba(255,255,255,0.045)" stroke-width="1"/>
<line x1="1520" y1="0" x2="1520" y2="900" stroke="rgba(255,255,255,0.045)" stroke-width="1"/>
<line x1="1560" y1="0" x2="1560" y2="900" stroke="rgba(255,255,255,0.045)" stroke-width="1"/>
<line x1="0" y1="40" x2="1600" y2="40" stroke="rgba(255,255,255,0.045)" stroke-width="1"/>
<line x1="0" y1="80" x2="1600" y2="80" stroke="rgba(255,255,255,0.045)" stroke-width="1"/>
<line x1="0" y1="120" x2="1600" y2="120" stroke="rgba(255,255,255,0.045)" stroke-width="1"/>
<line x1="0" y1="160" x2="1600" y2="160" stroke="rgba(255,255,255,0.045)" stroke-width="1"/>
<line x1="0" y1="200" x2="1600" y2="200" stroke="rgba(255,255,255,0.045)" stroke-width="1"/>
<line x1="0" y1="240" x2="1600" y2="240" stroke="rgba(255,255,255,0.045)" stroke-width="1"/>
<line x1="0" y1="280" x2="1600" y2="280" stroke="rgba(255,255,255,0.045)" stroke-width="1"/>
<line x1="0" y1="320" x2="1600" y2="320" stroke="rgba(255,255,255,0.045)" stroke-width="1"/>
<line x1="0" y1="360" x2="1600" y2="360" stroke="rgba(255,255,255,0.045)" stroke-width="1"/>
<line x1="0" y1="400" x2="1600" y2="400" stroke="rgba(255,255,255,0.045)" stroke-width="1"/>
<line x1="0" y1="440" x2="1600" y2="440" stroke="rgba(255,255,255,0.045)" stroke-width="1"/>
<line x1="0" y1="480" x2="1600" y2="480" stroke="rgba(255,255,255,0.045)" stroke-width="1"/>
<line x1="0" y1="520" x2="1600" y2="520" stroke="rgba(255,255,255,0.045)" stroke-width="1"/>
<line x1="0" y1="560" x2="1600" y2="560" stroke="rgba(255,255,255,0.045)" stroke-width="1"/>
<line x1="0" y1="600" x2="1600" y2="600" stroke="rgba(255,255,255,0.045)" stroke-width="1"/>
<line x1="0" y1="640" x2="1600" y2="640" stroke="rgba(255,255,255,0.045)" stroke-width="1"/>
<line x1="0" y1="680" x2="1600" y2="680" stroke="rgba(255,255,255,0.045)" stroke-width="1"/>
<line x1="0" y1="720" x2="1600" y2="720" stroke="rgba(255,255,255,0.045)" stroke-width="1"/>
<line x1="0" y1="760" x2="1600" y2="760" stroke="rgba(255,255,255,0.045)" stroke-width="1"/>
<line x1="0" y1="800" x2="1600" y2="800" stroke="rgba(255,255,255,0.045)" stroke-width="1"/>
<line x1="0" y1="840" x2="1600" y2="840" stroke="rgba(255,255,255,0.045)" stroke-width="1"/>
<line x1="0" y1="880" x2="1600" y2="880" stroke="rgba(255,255,255,0.045)" stroke-width="1"/>
<rect x="117" y="117" width="1366" height="612" fill="none" stroke="#e8e6e1" stroke-width="3"/>
<line x1="567.4436164100964" y1="117" x2="567.4436164100964" y2="390.03" stroke="#e8e6e1" stroke-width="1.6"/>
<line x1="567.4436164100964" y1="464.03" x2="567.4436164100964" y2="729" stroke="#e8e6e1" stroke-width="1.6"/>
<path d="M 567.4436164100964 390.03 L 641.44 390.03" stroke="#e8e6e1" stroke-width="1.4"/>
<path d="M 641.44 390.03 A 74 74 0 0 1 567.4436164100964 464.03" fill="none" stroke="#c9a86a" stroke-width="1.1" opacity="0.75"/>
<line x1="1023.3921581103154" y1="117" x2="1023.3921581103154" y2="334.67" stroke="#e8e6e1" stroke-width="1.6"/>
<line x1="1023.3921581103154" y1="408.67" x2="1023.3921581103154" y2="729" stroke="#e8e6e1" stroke-width="1.6"/>
<path d="M 1023.3921581103154 334.67 L 1097.39 334.67" stroke="#e8e6e1" stroke-width="1.4"/>
<path d="M 1097.39 334.67 A 74 74 0 0 1 1023.3921581103154 408.67" fill="none" stroke="#c9a86a" stroke-width="1.1" opacity="0.75"/>
<line x1="117" y1="434.79103894438595" x2="909.97" y2="434.79103894438595" stroke="#e8e6e1" stroke-width="1.6"/>
<line x1="983.97" y1="434.79103894438595" x2="1483" y2="434.79103894438595" stroke="#e8e6e1" stroke-width="1.6"/>
<path d="M 909.97 434.79103894438595 L 909.97 360.79" stroke="#e8e6e1" stroke-width="1.4"/>
<path d="M 909.97 360.79 A 74 74 0 0 1 983.97 434.79103894438595" fill="none" stroke="#c9a86a" stroke-width="1.1" opacity="0.75"/>
<rect x="216.81" y="476.42" width="58.93" height="64.48" fill="none" stroke="#e8e6e1" stroke-width="1.2" opacity="0.55" rx="3"/>
<circle cx="820.2" cy="390.69" r="18.81" fill="none" stroke="#e8e6e1" stroke-width="1.2" opacity="0.55"/>
<rect x="782.89" y="179.78" width="74.5" height="29.61" fill="none" stroke="#e8e6e1" stroke-width="1.2" opacity="0.55" rx="3"/>
<rect x="1073.36" y="488.28" width="47.01" height="73.14" fill="none" stroke="#e8e6e1" stroke-width="1.2" opacity="0.55" rx="3"/>
<rect x="1367.06" y="544.19" width="52.23" height="72.22" fill="none" stroke="#e8e6e1" stroke-width="1.2" opacity="0.55" rx="3"/>
<line x1="117" y1="761" x2="1483" y2="761" stroke="#c9a86a" stroke-width="1" opacity="0.6"/>
<line x1="117" y1="754" x2="117" y2="768" stroke="#c9a86a" stroke-width="1" opacity="0.6"/>
<line x1="1483" y1="754" x2="1483" y2="768" stroke="#c9a86a" stroke-width="1" opacity="0.6"/>
<text x="800" y="751" fill="#c9a86a" font-family="ui-monospace, SFMono-Regular, Menlo, Consolas, monospace" font-size="20" text-anchor="middle" opacity="0.8">7 400</text>
<text x="117" y="77" fill="#e8e6e1" font-family="ui-monospace, SFMono-Regular, Menlo, Consolas, monospace" font-size="20" letter-spacing="3" opacity="0.6">002 · SHEET hero</text>
<text x="117" y="106" fill="#e8e6e1" font-family="ui-monospace, SFMono-Regular, Menlo, Consolas, monospace" font-size="29" letter-spacing="1">COURTYARD STUDIO</text>
<text x="1483" y="106" fill="#c9a86a" font-family="ui-monospace, SFMono-Regular, Menlo, Consolas, monospace" font-size="20" letter-spacing="2" text-anchor="end" opacity="0.85">PLACEHOLDER</text>
<text x="1483" y="751" fill="#e8e6e1" font-family="ui-monospace, SFMono-Regular, Menlo, Consolas, monospace" font-size="20" text-anchor="end" opacity="0.45">Workspace · 2018</text>
</svg>
